<?xml version="1.0" encoding="UTF-8"?>
<svg id="Ebene_2" data-name="Ebene 2" xmlns="http://www.w3.org/2000/svg" viewBox="0 0 564.45 761.65">
  <defs>
    <style>
      .cls-1 {
        stroke-width: 0px;
      }
    </style>
  </defs>
  <g id="Ebene_1-2" data-name="Ebene 1">
    <path class="cls-1" d="m563,143.31l-32.95-47.78c-1.52-2.2-1.86-5.01-.9-7.51l20.68-54.23c2.4-6.29-3.46-12.6-9.91-10.68-19.93,10.7-38.78,17.41-55.62,16.57-2.56.76-5.34.22-7.42-1.46L431.7,1.81c-5.24-4.23-13.05-.61-13.22,6.12l-1.43,58.02c-.07,2.67-1.44,5.14-3.68,6.6l-48.6,31.72c-5.64,3.68-7.79,13.76,1.74,14.46,16.22.75,31.85,4.6,46.52,13.62-1.62,1.56-3.19,3.19-4.7,4.93-31.41,36.16-76.96,64.37-85.11,100.4-4.74,20.96,21.68,38.47,58.07,52.43,14.92,5.72,16.1,12.34,16.48,14.52,2.24,12.64-9.93,31.45-28.18,51.99l-37.03-32.59c-4.47-3.94-11.29-3.5-15.22.97l-14.51,16.49-39.02-92.04c-3.03-7.14-9.99-11.46-17.72-10.99-7.74.46-14.13,5.57-16.29,13.01l-27.54,94.9c-7.46,3.42-14.7,7.64-21.63,12.74-.14.1-.28.21-.42.31l-94.24-38.13c-7.19-2.91-15.15-1.04-20.3,4.75-5.15,5.79-6.06,13.93-2.32,20.72l50.98,92.65c-2.53,5.72-4.73,11.53-6.58,17.42l-96.72,41c-7.14,3.02-11.45,9.98-10.99,17.72s5.57,14.13,13.01,16.29l100.44,29.15c1.84,4.1,3.87,8.18,6.12,12.24.91,1.63,1.83,3.24,2.75,4.83l-39.5,97.62c-2.91,7.18-1.04,15.15,4.75,20.3,5.79,5.15,13.93,6.06,20.72,2.32l89.91-49.47c6.49,2.38,13.25,4.18,20.28,5.35l40.88,96.45c2.88,6.79,9.31,11.02,16.6,11.02.37,0,.75-.01,1.12-.03,7.74-.46,14.13-5.57,16.29-13.01l31.1-107.18c4.34-1.05,8.55-2.12,12.5-3.2l100.23,40.55c7.18,2.91,15.15,1.04,20.3-4.75,5.15-5.8,6.06-13.93,2.32-20.72l-45.95-83.53c3.63-9.27,6.11-19.01,7.51-29.07l90.77-38.48c7.14-3.02,11.45-9.98,10.99-17.72s-5.57-14.13-13.01-16.29l-104.56-30.34,17.44-19.82c3.94-4.47,3.5-11.29-.97-15.22l-33.52-29.5c24.6-27.7,37.87-51.73,34.06-73.13-2.69-15.15-13.56-26.49-32.3-33.68-26.14-10.03-40.69-21.1-42.06-32-2.74-21.71,42-53.46,74.66-76.63,2.06-1.46,4.11-2.91,6.13-4.36l12.45,46.05c1.76,6.5,10.2,8.16,14.29,2.81l33.82-52.24c1.62-2.12,4.19-3.31,6.86-3.18l59.4,9.05c6.72.34,10.92-7.18,7.09-12.72ZM145.19,459.89c18.45-41.74,45.92-77.87,89.47-91.23,3.34-1.05,6.87.85,7.88,4.18,1.02,3.33-1.79,5.34-4.18,7.88-28.37,30.17-58.08,36.97-69.38,76.59-.79,2.78-14.97,10.62-17.72,10.62-.57,0-1.15-.07-1.73-.25-3.36-.95-5.75-4.6-4.34-7.8Zm101.9-203.42s.01-.04.02-.05c.04,0,.08-.01.11,0,0,.01.01.03.02.05l34.43,81.23c-19.5-3.74-39.44-3.54-58.53,1.3l23.94-82.52Zm-167.97,81.61s-.02-.03-.03-.05c.02-.03.05-.06.07-.08.01,0,.03.01.05.02l85.02,34.4c-16.09,14.3-29.59,30.46-39.95,47.81l-45.17-82.1Zm-61.07,176.47s-.04-.01-.05-.02c0-.04,0-.08,0-.11.01,0,.03-.01.05-.02l84.53-35.83c-3.27,20.22-2.37,40.97,3.33,61.48l-87.86-25.49Zm81.61,167.97s-.03.02-.05.03c-.03-.02-.06-.05-.08-.07,0-.01.01-.03.02-.05l34.73-85.84c12.97,18.17,27.56,32.58,44.09,42.64l-78.71,43.3Zm176.48,61.07s-.01.04-.02.05c-.04,0-.08,0-.11,0,0-.01-.01-.03-.02-.05l-37.22-87.81c6.88,0,14-.54,21.37-1.64,8.19-1.23,25.85-4.32,44.34-8.21l-28.34,97.65Zm167.97-81.61s.02.03.03.05c-.02.03-.05.06-.07.08-.01,0-.03-.01-.05-.02l-81.93-33.15c18.37-10.6,32.22-24.14,42.02-39.68l40.01,72.71Zm61.12-176.46s0,.08,0,.11c-.01,0-.03.01-.05.02l-82.36,34.91c.05-20.27-3.78-41.37-10.91-62.12l93.26,27.06s.04.01.05.02Z"/>
  </g>
</svg>