<?xml version="1.0" encoding="UTF-8"?>
<svg id="Ebene_2" data-name="Ebene 2" xmlns="http://www.w3.org/2000/svg" viewBox="0 0 4000 556.85">
  <defs>
    <style>
      .cls-1 {
        fill: #b3d7ac;
      }

      .cls-1, .cls-2, .cls-3, .cls-4, .cls-5, .cls-6, .cls-7, .cls-8, .cls-9, .cls-10 {
        stroke-width: 0px;
      }

      .cls-2 {
        fill: #d4a373;
      }

      .cls-3 {
        fill: #dbe1bc;
      }

      .cls-4 {
        fill: #eec6df;
      }

      .cls-6 {
        fill: #808ec7;
      }

      .cls-7 {
        fill: #ac88bd;
      }

      .cls-8 {
        fill: #ffd972;
      }

      .cls-9 {
        fill: #fff;
      }

      .cls-10 {
        fill: #87cfe4;
      }
    </style>
  </defs>
  <g id="Ebene_1-2" data-name="Ebene 1">
    <g>
      <g>
        <path class="cls-10" d="m120.45,160.65c8.45-2.65,19.02-3.96,31.69-3.96,29.59,0,53.89,8.98,72.91,26.94l11.09,10.3,7.92-6.34c14.26-11.62,31.43-17.43,51.5-17.43,1.06,0,2.25.13,3.57.4s2.25.4,2.77.4c8.45,1.58,16.91,6.73,25.36,15.45s13.99,18.1,16.64,28.13c2.11,9.51,3.17,17.18,3.17,22.98,0,22.72-6.86,43.07-20.6,61.02-13.74,17.97-30.9,26.94-51.5,26.94-12.15,0-25.1-6.59-38.83-19.81-13.22-12.68-28.52-19.02-45.97-19.02-15.85,0-29.59,5.02-41.2,15.05-16.91,13.74-25.36,29.85-25.36,48.33s8.97,34.07,26.94,45.16c8.45,5.83,19.54,8.72,33.28,8.72,18.49,0,42.01-6.06,70.53-18.22,13.2-5.8,23.77-8.72,31.69-8.72,12.15,0,25.09,6.08,38.83,18.22,19.54,16.38,29.33,39.36,29.33,68.95,0,19.55-4.9,37.24-14.67,53.09-9.78,15.85-23.37,26.15-40.81,30.9-8.98,2.66-16.12,3.96-21.39,3.96-12.68,0-26.69-7.39-41.99-22.19-12.68-11.62-20.09-17.43-22.19-17.43-3.71,0-9,2.65-15.85,7.92-19.03,14.26-42.28,21.39-69.74,21.39-20.08,0-40.68-4.47-61.8-13.47-23.26-10.56-41.22-27.73-53.89-51.5-5.82-10.56-9.24-18.49-10.3-23.77s-1.58-15.58-1.58-30.9c0-21.12,2.9-37.51,8.72-49.14,10.03-20.06,24.83-34.59,44.39-43.58l14.26-6.34c.51,0,.25-.65-.79-1.98-1.08-1.32-2.52-3.17-4.36-5.55-1.87-2.38-3.85-4.88-5.94-7.53-10.58-12.15-15.85-25.88-15.85-41.22,0-6.34.25-11.35.79-15.05,3.17-22.71,11.74-41.99,25.75-57.84,13.99-15.85,31.82-26.94,53.48-33.28Z"/>
        <path class="cls-8" d="m574.51,152.73c6.34-1.58,13.2-2.38,20.6-2.38,10.03,0,19.02,1.06,26.94,3.17,8.98,2.65,19.03,9.51,30.12,20.6,11.09,11.09,17.96,21.14,20.6,30.11l3.96,14.26,19.81-7.13c9.51-3.69,19.81-5.55,30.9-5.55,23.77,0,43.98,8.98,60.63,26.94,16.64,17.97,24.96,40.69,24.96,68.16s-9.25,50.98-27.73,68.93l-11.9,11.89,7.92,15.05c5.28,9.51,7.94,26.16,7.94,49.93,0,16.37-.54,27.34-1.58,32.88-1.08,5.55-4.24,12.55-9.52,21-6.34,11.09-15.05,21.27-26.15,30.51-11.09,9.25-22.19,15.2-33.28,17.83-6.88,2.12-14.8,3.17-23.77,3.17-30.65,0-55.75-10.81-75.29-32.49l-14.26-15.05-10.3,10.3c-17.43,17.43-37.78,26.15-61.01,26.15-20.6,0-39.22-6.85-55.86-20.6-16.65-13.72-27.35-31.69-32.1-53.88-1.06-3.69-1.58-9.51-1.58-17.43,0-16.37,4.49-33.55,13.47-51.52l7.92-15.05-9.51-9.51c-14.26-14.79-21.39-32.74-21.39-53.88,0-15.32,4.23-29.59,12.68-42.8,8.45-13.19,20.33-22.7,35.67-28.52,7.92-2.63,15.31-3.96,22.19-3.96h3.17c1.05,0,1.98.14,2.77.4.79.27,1.44.4,1.98.4,3.69,0,6.07-5.55,7.13-16.64v-3.17c1.58-16.37,7.53-31.43,17.83-45.16s22.31-22.71,36.05-26.94Zm97.47,202.06v-5.55c0-12.14-3.83-23.5-11.49-34.07-7.67-10.57-17.04-15.85-28.13-15.85-16.38,1.06-31.18,8.19-44.39,21.39-13.2,13.22-19.81,27.73-19.81,43.58,0,8.46,2.65,17.18,7.92,26.15,5.28,9,11.09,15.05,17.43,18.24,5.82,3.17,12.15,4.75,19.02,4.75,22.71,0,39.89-10.57,51.52-31.71,4.22-7.92,6.86-16.89,7.92-26.94Z"/>
        <path class="cls-1" d="m1015.87,160.65c8.45-2.65,19.02-3.96,31.69-3.96,29.59,0,53.89,8.98,72.91,26.94l11.09,10.3,7.92-6.34c14.26-11.62,31.43-17.43,51.5-17.43,1.06,0,2.25.13,3.57.4s2.25.4,2.77.4c8.45,1.58,16.91,6.73,25.36,15.45s13.99,18.1,16.64,28.13c2.11,9.51,3.17,17.18,3.17,22.98,0,22.72-6.86,43.07-20.6,61.02-13.74,17.97-30.9,26.94-51.5,26.94-12.15,0-25.1-6.59-38.83-19.81-13.22-12.68-28.52-19.02-45.97-19.02-15.85,0-29.59,5.02-41.2,15.05-16.91,13.74-25.36,29.85-25.36,48.33s8.97,34.07,26.94,45.16c8.45,5.83,19.54,8.72,33.28,8.72,18.49,0,42.01-6.06,70.53-18.22,13.2-5.8,23.77-8.72,31.69-8.72,12.15,0,25.09,6.08,38.83,18.22,19.54,16.38,29.33,39.36,29.33,68.95,0,19.55-4.9,37.24-14.67,53.09s-23.37,26.15-40.81,30.9c-8.98,2.66-16.12,3.96-21.39,3.96-12.68,0-26.69-7.39-41.99-22.19-12.68-11.62-20.09-17.43-22.19-17.43-3.71,0-9,2.65-15.85,7.92-19.03,14.26-42.28,21.39-69.74,21.39-20.08,0-40.68-4.47-61.8-13.47-23.26-10.56-41.22-27.73-53.89-51.5-5.82-10.56-9.24-18.49-10.3-23.77s-1.58-15.58-1.58-30.9c0-21.12,2.9-37.51,8.72-49.14,10.03-20.06,24.83-34.59,44.39-43.58l14.26-6.34c.51,0,.25-.65-.79-1.98-1.08-1.32-2.52-3.17-4.36-5.55-1.87-2.38-3.85-4.88-5.94-7.53-10.58-12.15-15.85-25.88-15.85-41.22,0-6.34.25-11.35.79-15.05,3.17-22.71,11.74-41.99,25.75-57.84,13.99-15.85,31.82-26.94,53.48-33.28Z"/>
        <path class="cls-4" d="m1469.93,152.73c6.34-1.58,13.2-2.38,20.6-2.38,10.03,0,19.02,1.06,26.94,3.17,8.98,2.65,19.03,9.51,30.12,20.6,11.09,11.09,17.96,21.14,20.6,30.11l3.96,14.26,19.81-7.13c9.51-3.69,19.81-5.55,30.9-5.55,23.77,0,43.98,8.98,60.63,26.94,16.64,17.97,24.96,40.69,24.96,68.16s-9.25,50.98-27.73,68.93l-11.9,11.89,7.92,15.05c5.28,9.51,7.94,26.16,7.94,49.93,0,16.37-.54,27.34-1.58,32.88-1.08,5.55-4.24,12.55-9.52,21-6.34,11.09-15.05,21.27-26.15,30.51-11.09,9.25-22.19,15.2-33.28,17.83-6.88,2.12-14.8,3.17-23.77,3.17-30.65,0-55.75-10.81-75.29-32.49l-14.26-15.05-10.3,10.3c-17.43,17.43-37.78,26.15-61.01,26.15-20.6,0-39.22-6.85-55.86-20.6-16.65-13.72-27.35-31.69-32.1-53.88-1.06-3.69-1.58-9.51-1.58-17.43,0-16.37,4.49-33.55,13.47-51.52l7.92-15.05-9.51-9.51c-14.26-14.79-21.39-32.74-21.39-53.88,0-15.32,4.23-29.59,12.68-42.8,8.45-13.19,20.33-22.7,35.67-28.52,7.92-2.63,15.31-3.96,22.19-3.96h3.17c1.05,0,1.98.14,2.77.4.79.27,1.44.4,1.98.4,3.69,0,6.07-5.55,7.13-16.64v-3.17c1.58-16.37,7.53-31.43,17.83-45.16,10.3-13.74,22.31-22.71,36.05-26.94Zm97.47,202.06v-5.55c0-12.14-3.83-23.5-11.49-34.07-7.67-10.57-17.04-15.85-28.13-15.85-16.38,1.06-31.18,8.19-44.39,21.39-13.2,13.22-19.81,27.73-19.81,43.58,0,8.46,2.65,17.18,7.92,26.15,5.28,9,11.09,15.05,17.43,18.24,5.82,3.17,12.15,4.75,19.02,4.75,22.71,0,39.89-10.57,51.52-31.71,4.22-7.92,6.86-16.89,7.92-26.94Z"/>
        <path class="cls-2" d="m2054.73,154.31c9.51-3.17,19.27-4.75,29.32-4.75,16.37,0,30.38,3.69,41.99,11.09,8.45,5.28,15.86,13.47,22.2,24.56,6.34,11.09,10.02,22.19,11.09,33.28,0,1.06.11,2.65.4,4.75.25,2.12.4,3.71.4,4.75,0,18.49-5.29,33.56-15.85,45.16-10.58,11.63-24.31,17.45-41.22,17.45-7.92,0-11.89.52-11.89,1.58s1.85,9.51,5.55,25.36c2.65,12.15,3.96,24.31,3.96,36.45,0,20.09-2.65,34.61-7.92,43.58l-5.55,11.11,13.47,15.05c13.74,16.37,20.6,33.8,20.6,52.29,0,25.89-11.36,46.49-34.07,61.8-12.68,7.92-26.94,11.89-42.79,11.89-29.06,0-51.25-10.02-66.57-30.11l-9.51-13.47-9.51,15.05c-10.57,17.97-31.43,28.52-62.6,31.69-1.58,0-3.57.14-5.94.4-2.38.28-4.1.4-5.15.4-7.92,0-17.97-2.63-30.11-7.92-20.09-9.51-35.8-23.63-47.16-42.39-11.36-18.75-17.04-39.74-17.04-62.99s5.55-45.69,16.64-68.95c9.51-20.06,23.11-36.18,40.82-48.33,17.69-12.14,35.51-18.22,53.48-18.22,19.02,0,34.34,6.88,45.96,20.6,5.82,6.88,8.72,17.7,8.72,32.49,0,12.17-1.85,24.31-5.55,36.45-3.17,10.58-4.49,16.13-3.96,16.65h.79c3.17,0,8.72-2.11,16.64-6.35,7.92-4.22,14.53-8.72,19.81-13.47,17.45-15.85,27.46-40.14,30.12-72.9v-11.09c0-12.15-.79-20.33-2.38-24.56l-3.96-9.52-17.43,12.69c-11.63,7.92-24.05,11.89-37.25,11.89-23.77,0-41.74-8.72-53.88-26.16-8.46-12.14-12.68-25.61-12.68-40.41,0-17.43,6.07-32.74,18.22-45.96,14.26-14.26,30.9-21.39,49.92-21.39,14.79,0,28,4.23,39.63,12.68l9.51,7.13,16.64-11.89c10.03-7.4,21.39-13.2,34.07-17.43Z"/>
        <path class="cls-3" d="m2383.58,165.41c7.4-4.23,16.12-6.34,26.15-6.34,16.37,0,30.38,4.23,42.01,12.68,19.02,13.74,30.11,31.44,33.28,53.09,1.05,7.92,2.38,12.68,3.96,14.26s6.59,3.44,15.05,5.55c22.71,5.83,39.62,18.51,50.71,38.05,6.34,11.62,9.51,26.94,9.51,45.96s-2.11,33.28-6.34,41.2l-6.34,11.09,11.09,13.47c16.91,21.68,25.36,47.03,25.36,76.08,0,19.02-2.5,34.34-7.53,45.96-5.02,11.63-13.87,21.68-26.54,30.11-10.57,6.88-19.81,10.3-27.73,10.3-6.34,0-11.89-.25-16.64-.79-17.97-1.05-31.17-4.47-39.62-10.3-19.55-12.68-34.88-30.11-45.97-52.29l-9.51-19.02-3.96,12.68c-7.92,25.36-25.36,44.91-52.29,58.63-13.22,6.88-25.1,10.3-35.66,10.3h-8.72c-27.48-1.58-47.55-15.05-60.23-40.41-6.34-11.09-9.51-21.92-9.51-32.49,0-1.58.13-4.22.4-7.92.27-3.69.4-6.86.4-9.51,1.58-29.05,10.03-53.09,25.36-72.12l7.92-9.51-7.13-15.05c-5.82-11.62-8.72-24.29-8.72-38.03,0-15.31,3.44-30.38,10.3-45.16,12.15-23.78,29.59-37.78,52.31-42.01,4.75-.52,7.92-1.84,9.51-3.96,1.58-2.11,2.9-6.59,3.96-13.47,3.17-25.36,18.22-45.69,45.16-61.01Zm57.06,152.94c-7.41-14.26-16.92-21.39-28.54-21.39-7.92,0-15.18,3.69-21.79,11.09s-10.97,17.43-13.07,30.11c0,1.06-.14,2.38-.4,3.96-.27,1.58-.4,2.65-.4,3.17,0,8.98,2.38,17.7,7.13,26.15,4.75,8.46,10.57,14.55,17.43,18.22,5.82,2.66,9.64,3.96,11.49,3.96s5.42-1.3,10.7-3.96c6.34-3.17,12.01-9.37,17.05-18.62,5.01-9.24,7.53-18.08,7.53-26.54,0-7.92-2.38-16.64-7.13-26.15Z"/>
        <path class="cls-7" d="m2732.24,155.11c9.51-3.17,20.33-4.75,32.49-4.75,23.23,0,43.06,4.23,59.43,12.68,6.86,3.69,15.32,10.7,25.36,21s17.16,19.68,21.41,28.13l6.34,11.09,8.72-15.05c16.37-30.11,41.73-48.6,76.07-55.46,8.45-1.58,16.64-2.38,24.56-2.38,27.46,0,50.98,9.24,70.53,27.73,9.51,8.98,15.71,17.43,18.62,25.36,2.9,7.92,4.36,20.6,4.36,38.03,0,19.55-2.65,34.86-7.92,45.97l-7.13,15.05,8.72,5.55c5.28,3.17,10.3,9.78,15.05,19.81,4.22,10.05,6.34,20.08,6.34,30.11,0,22.19-7.92,39.9-23.77,53.1l-11.09,9.51,7.92,12.68c7.92,12.68,11.89,26.67,11.89,41.99,0,19.02-6.08,35.4-18.22,49.13-9.51,11.09-18.22,18.22-26.15,21.39-7.92,3.17-21.14,4.75-39.63,4.75-35.39,0-60.49-8.43-75.27-25.36-13.22-14.79-19.81-30.9-19.81-48.33s7.13-41.99,21.39-72.12c13.2-26.4,19.81-42.52,19.81-48.33,0-2.63-1.33-5.8-3.96-9.51-1.58-2.63-3.44-3.96-5.55-3.96-3.71,0-11.09,11.36-22.19,34.07-6.34,13.22-11.09,21.79-14.26,25.75s-6.62,6.23-10.3,6.75h-2.38c-4.24,0-8.46-2.9-12.68-8.73-4.24-5.8-10.84-17.43-19.82-34.86-8.98-16.89-15.58-25.36-19.81-25.36-2.65,0-5.28,2.91-7.92,8.72-1.06,3.17-1.58,5.29-1.58,6.34,0,4.23,5.82,18.76,17.43,43.58,13.2,26.95,20.87,45.7,22.98,56.27,1.06,7.4,1.6,12.95,1.6,16.64,0,14.8-3.71,28.4-11.11,40.81-7.4,12.42-17.16,21.53-29.32,27.34-17.43,7.92-36.99,11.89-58.63,11.89-11.09,0-19.81-1.05-26.15-3.17-11.09-3.17-21.53-9.51-31.3-19.02-9.79-9.51-15.99-19.27-18.63-29.32-1.58-6.86-2.38-14.52-2.38-22.98,0-18.49,3.17-33.28,9.51-44.37l7.92-12.68-11.09-9.51c-15.85-14.28-23.77-32.76-23.77-55.48,0-16.37,4.75-30.11,14.26-41.2l7.92-9.51-8.72-17.43c-6.34-14.28-9.51-29.59-9.51-45.97s2.65-29.84,7.92-40.41c3.69-8.97,10.7-17.96,21-26.94,10.31-8.98,20.47-15.32,30.52-19.02Z"/>
        <path class="cls-6" d="m3321.79,185.22c17.96-16.37,40.41-24.56,67.36-24.56,39.08,0,67.87,15.32,86.37,45.96,6.86,11.63,10.3,24.31,10.3,38.03,0,23.77-9.24,45.7-27.73,65.78l-12.68,14.26,11.09,6.34c24.29,12.15,42.79,30.11,55.46,53.88,5.28,10.05,8.59,17.57,9.9,22.6s1.98,14.39,1.98,28.13c0,20.08-3.17,36.45-9.51,49.13-10.57,21.66-26.27,38.97-47.14,51.9-20.87,12.96-43.45,19.41-67.75,19.41-11.09,0-22.19-1.58-33.29-4.75-23.25-6.85-39.35-15.56-48.33-26.15-2.11-2.63-4.09-3.82-5.94-3.57-1.85.27-5.94,2.52-12.28,6.73-9.51,5.83-22.19,9.51-38.03,11.09-1.58,0-3.71.14-6.34.4-2.66.28-4.5.4-5.55.4-8.46,0-18.51-2.89-30.11-8.72-13.22-6.34-23.66-15.45-31.31-27.34-7.65-11.89-11.49-24.42-11.49-37.64,0-4.23.27-7.4.79-9.51,1.58-8.98,5.82-18.75,12.68-29.32,6.86-10.57,13.47-17.7,19.81-21.41l10.31-4.75-11.11-15.85c-7.4-10.56-11.09-23.23-11.09-38.03,0-13.72,3.69-25.61,11.09-35.66,7.4-9.51,9.52-15.58,6.35-18.22-5.29-3.69-10.31-11.76-15.07-24.18-4.75-12.39-7.13-22.84-7.13-31.3,0-37.5,19.02-56.26,57.06-56.26,14.79,0,27.73,2.9,38.83,8.72l16.64,8.72,15.85-14.26Zm65.78,212.36c-9-5.26-18.51-7.92-28.54-7.92-12.68,0-23.77,3.71-33.28,11.09-9.51,7.41-14.26,16.13-14.26,26.16,0,8.98,4.49,17.16,13.47,24.56,10.03,8.45,21.92,12.68,35.66,12.68,21.12,0,35.67-9.24,43.59-27.73,1.05-1.58,1.58-4.49,1.58-8.72,0-13.2-6.08-23.25-18.22-30.12Zm-11.09-126c-6.88-5.8-14.01-8.72-21.41-8.72-6.86,0-14.26,2.38-22.19,7.13s-12.95,9.79-15.05,15.07c-.52,1.06-.79,2.9-.79,5.55,0,4.75,1.58,9.64,4.75,14.66,3.17,5.02,7.13,8.32,11.89,9.9,5.82,2.12,11.62,3.17,17.43,3.17,9.51,0,17.83-2.77,24.97-8.32,7.13-5.55,10.7-12.01,10.7-19.41s-3.45-13.74-10.3-19.03Z"/>
      </g>
      <circle class="cls-5" cx="3747.24" cy="416.26" r="135.82"/>
      <path class="cls-9" d="m3641.54,391.59c-.49,0-.99-.06-1.49-.21-2.89-.82-4.58-3.83-3.75-6.73,10.76-37.76,39.61-67.18,77.18-78.7,2.88-.9,5.93.73,6.8,3.61.88,2.87-.72,5.93-3.61,6.8-34.02,10.44-60.15,37.09-69.9,71.27-.68,2.39-2.86,3.96-5.24,3.96Z"/>
      <path class="cls-5" d="m3988.49,26.59l-16.27,42.66c-.75,1.97-.48,4.17.71,5.9l25.92,37.59c3.01,4.36-.29,10.28-5.58,10.01l-45.6-2.29c-2.1-.11-4.12.83-5.4,2.5l-27.74,36.27c-3.22,4.21-9.86,2.9-11.24-2.21l-11.91-44.08c-.55-2.03-2.06-3.66-4.05-4.36l-43.06-15.17c-5-1.76-5.8-8.48-1.37-11.38l38.24-24.95c1.76-1.15,2.84-3.09,2.9-5.19l1.12-45.65c.13-5.29,6.28-8.14,10.4-4.82l35.55,28.66c1.64,1.32,3.82,1.75,5.83,1.15l43.76-13.04c5.08-1.51,9.68,3.45,7.8,8.4Z"/>
      <path class="cls-5" d="m3699.2,458.56c-2.41,0-4.34-1.45-6.85-3.62-1.89-1.65-7.51-7.78-.01-17.48l17.24,13.35-8.62-6.67,8.63,6.65c1.23-2.05,1.71-7.94-2.64-12.03-4.35-4.11-10.21-3.25-12.8-1.39,1.11-.8,6.91-5.64,35.05-34.65,11.08-11.43,27.1-25.41,44.05-40.22,39.7-34.68,99.69-87.1,95.28-111.91-.33-1.88-1.35-7.59-14.22-12.53-31.4-12.05-47.79-26.84-50.1-45.23-3.99-31.68,35.37-59.6,73.42-86.61,15.4-10.92,29.95-21.24,38.56-29.95l15.5,15.33c-9.95,10.06-25.24,20.91-41.44,32.41-28.18,19.99-66.77,47.37-64.41,66.1,1.18,9.41,13.73,18.95,36.28,27.61,16.17,6.2,25.54,15.99,27.86,29.05,6.1,34.29-38.6,76.39-102.4,132.14-16.6,14.51-32.29,28.2-42.74,38.98-30.16,31.1-39.44,40.67-45.64,40.67Z"/>
      <rect class="cls-5" x="3760.51" y="290.13" width="121.51" height="89.67" rx="2.17" ry="2.17" transform="translate(1174.25 -2441.28) rotate(41.36)"/>
    </g>
  </g>
</svg>